HIERARCHY
ROOT Hips
{
  OFFSET 0 89.5177 0.535
  CHANNELS 6 Xposition Yposition Zposition Zrotation Xrotation Yrotation
  JOINT Spine
  {
    OFFSET 12.0259 -0.162855 1.69034e-005
    CHANNELS 3 Zrotation Xrotation Yrotation
    JOINT Spine1
    {
      OFFSET 15.3169 -0.0121922 0
      CHANNELS 3 Zrotation Xrotation Yrotation
      JOINT Spine2
      {
        OFFSET 15.3176 -0.0121908 0
        CHANNELS 3 Zrotation Xrotation Yrotation
        JOINT Neck
        {
          OFFSET 19.9142 1.56338 0
          CHANNELS 3 Zrotation Xrotation Yrotation
          JOINT Head
          {
            OFFSET 6.92651 0 0
            CHANNELS 3 Zrotation Xrotation Yrotation
            End Site
            {
              OFFSET 20.7666 0 0
            }
          }
          JOINT LeftShoulder
          {
            OFFSET -6.20654 0.708824 7.28219
            CHANNELS 3 Zrotation Xrotation Yrotation
            JOINT LeftArm
            {
              OFFSET 14.108 0 -1.52588e-005
              CHANNELS 3 Zrotation Xrotation Yrotation
              JOINT LeftForeArm
              {
                OFFSET 28.5802 0 0
                CHANNELS 3 Zrotation Xrotation Yrotation
                JOINT LeftHand
                {
                  OFFSET 27.092 0 0
                  CHANNELS 3 Zrotation Xrotation Yrotation
                  End Site
                  {
                    OFFSET 9.55928 -0.186424 0.145352
                  }
                }
              }
            }
          }
          JOINT RightShoulder
          {
            OFFSET -6.20654 0.708866 -7.28218
            CHANNELS 3 Zrotation Xrotation Yrotation
            JOINT RightArm
            {
              OFFSET 14.108 0 1.52588e-005
              CHANNELS 3 Zrotation Xrotation Yrotation
              JOINT RightForeArm
              {
                OFFSET 28.5802 0 0
                CHANNELS 3 Zrotation Xrotation Yrotation
                JOINT RightHand
                {
                  OFFSET 27.092 0 0
                  CHANNELS 3 Zrotation Xrotation Yrotation
                  End Site
                  {
                    OFFSET 9.55929 -0.186417 -0.145354
                  }
                }
              }
            }
          }
        }
      }
    }
  }
  JOINT LeftUpLeg
  {
    OFFSET 0.005 -0.535 8.837
    CHANNELS 3 Zrotation Xrotation Yrotation
    JOINT LeftLeg
    {
      OFFSET 39.9035 0 0
      CHANNELS 3 Zrotation Xrotation Yrotation
      JOINT LeftFoot
      {
        OFFSET 39.6689 0 0
        CHANNELS 3 Zrotation Xrotation Yrotation
        JOINT LeftToe
        {
          OFFSET 10.1624 13.6296 0
          CHANNELS 3 Zrotation Xrotation Yrotation
          End Site
          {
            OFFSET 8.38147 0 0
          }
        }
      }
    }
  }
  JOINT RightUpLeg
  {
    OFFSET 0.005 -0.535 -8.837
    CHANNELS 3 Zrotation Xrotation Yrotation
    JOINT RightLeg
    {
      OFFSET 39.9035 0 0
      CHANNELS 3 Zrotation Xrotation Yrotation
      JOINT RightFoot
      {
        OFFSET 39.6689 0 0
        CHANNELS 3 Zrotation Xrotation Yrotation
        JOINT RightToe
        {
          OFFSET 10.1624 13.6296 0
          CHANNELS 3 Zrotation Xrotation Yrotation
          End Site
          {
            OFFSET 8.38147 0 0
          }
        }
      }
    }
  }
}
MOTION
Frames:	17
Frame Time:	0.0333333
286.864 89.37 44.5428 149.877 -82.576 59.3299 -0.809288 -0.156485 -1.25844 -1.62182 -0.294677 -2.5188 -1.62182 -0.294677 -2.51881 -8.30708e-012 -9.0191e-006 -5.27751e-005 14.0937 3.46806 -2.51269 177.953 -14.8912 -97.9179 -12.4529 -54.0582 1.72925 -7.79736e-006 0 -3.97569e-016 -41.6495 -23.6226 -29.2661 178.617 6.56804 101.92 77.8262 67.6709 -78.8838 -1.50229 0 -7.95139e-016 -35.5935 12.7642 18.4164 -13.4557 7.43956 -178.502 -19.1817 -1.59028e-015 -7.95139e-016 15.1142 3.9251 -7.49821 90 2.28602e-015 -2.38542e-015 -14.1357 -3.38158 178.298 -20.3911 -4.96962e-017 2.48481e-016 12.6616 -1.9867 4.01581 90 -5.74612e-016 -3.97569e-016 
287.132 89.3903 44.4307 149.552 -82.6065 58.888 -0.83152 -0.169455 -1.24054 -1.66652 -0.320385 -2.48323 -1.66652 -0.320385 -2.48324 -8.30669e-012 -9.0191e-006 -5.27751e-005 13.7164 2.94545 -2.11523 177.993 -14.8086 -97.8087 -12.2651 -54.3123 1.88937 -7.71466e-006 -6.36111e-015 -7.95139e-016 -41.8035 -23.6741 -29.3325 178.661 6.48788 101.69 76.7024 67.4381 -77.726 -1.5309 0 7.95139e-016 -35.6088 12.9542 18.6093 -13.2937 7.34337 -178.211 -19.0015 0 7.95139e-016 15.0297 3.85499 -7.58062 90 -1.98785e-016 -0 -13.7468 -3.49438 178.599 -19.8978 -1.49089e-016 2.48481e-016 12.6502 -2.01239 4.0676 90 8.56579e-018 -0 
287.414 89.4184 44.3041 148.515 -82.5995 57.6483 -0.84655 -0.18492 -1.1994 -1.69679 -0.351594 -2.40124 -1.69679 -0.351594 -2.40125 -8.30808e-012 -9.0191e-006 -5.27751e-005 13.3028 2.42448 -1.91086 178.022 -14.6534 -97.7727 -12.061 -54.0435 2.12582 -7.62856e-006 0 -0 -41.8554 -23.9193 -29.4929 178.695 6.44743 101.465 76.1528 67.4387 -77.0626 -1.48298 0 -7.95139e-016 -35.7709 13.1581 18.8686 -13.1661 7.24292 -177.824 -18.9084 0 -0 15.0342 3.88354 -7.70876 90 7.95139e-016 -1.59028e-015 -13.1907 -3.87085 178.954 -19.173 -4.34842e-017 -2.3528e-016 12.6434 -2.13446 4.31342 90 2.42269e-016 -1.19271e-015 
287.707 89.4547 44.1749 147.772 -82.5633 56.7364 -0.870801 -0.200328 -1.15636 -1.74548 -0.382554 -2.31547 -1.74548 -0.382554 -2.31548 -8.30748e-012 -9.0191e-006 -5.27751e-005 12.9343 2.06779 -1.88721 178.043 -14.5647 -97.7392 -12.1242 -53.5748 2.16845 -7.5393e-006 -3.18055e-015 -0 -42.1357 -24.2021 -29.8647 178.696 6.49748 101.373 75.9772 67.464 -76.9126 -1.48899 7.95139e-016 -0 -35.7635 13.0052 18.8157 -13.0387 7.12083 -177.466 -18.7333 -1.59028e-015 -7.95139e-016 14.9789 3.88358 -7.84765 90 6.95746e-016 -2.38542e-015 -12.6329 -4.0888 179.305 -18.3577 1.2424e-017 5.09386e-016 12.5474 -2.19904 4.44432 90 -2.54693e-016 -3.97569e-016 
287.991 89.4895 44.0441 147.493 -82.5023 56.3177 -0.90711 -0.220888 -1.12976 -1.81841 -0.423355 -2.26272 -1.81841 -0.423355 -2.26273 -8.30688e-012 -9.0191e-006 -5.27751e-005 12.5958 1.92269 -1.85071 178.043 -14.6311 -97.7048 -12.5756 -53.1957 1.88922 -7.4471e-006 -9.54166e-015 3.97569e-016 -42.3512 -24.5634 -30.3259 178.691 6.54911 101.33 76.1177 67.4359 -77.1472 -1.5313 -1.59028e-015 -0 -35.8275 12.9436 18.7191 -13.0064 7.04392 -177.148 -18.6603 1.59028e-015 -0 14.928 3.88935 -7.85844 90 -1.63997e-015 -0 -12.1767 -4.22362 179.659 -17.6318 4.96962e-017 -6.52262e-017 12.4215 -2.19119 4.42861 90 1.02498e-016 -7.95139e-016 
288.253 89.5178 43.9199 147.598 -82.442 56.3362 -0.946807 -0.232915 -1.10961 -1.89796 -0.446954 -2.22277 -1.89796 -0.446954 -2.22278 -8.30728e-012 -9.0191e-006 -5.27751e-005 12.2829 1.91653 -1.78982 178.03 -14.6753 -97.7299 -12.8274 -53.6641 1.72911 -7.3522e-006 0 -0 -42.3333 -24.3905 -30.2448 178.677 6.60481 101.353 76.7007 67.4535 -77.7763 -1.55958 0 -3.97569e-016 -35.9207 12.9792 18.7997 -12.9977 7.00837 -176.893 -18.597 1.59028e-015 3.97569e-016 14.8336 3.89589 -7.8715 90 2.98177e-016 3.18055e-015 -11.8551 -4.33116 179.92 -17.0778 -4.96962e-017 7.45443e-017 12.3378 -2.24188 4.53106 90 1.32937e-015 -3.97569e-016 
288.488 89.534 43.819 148.035 -82.4117 56.7473 -0.974625 -0.232819 -1.10127 -1.95356 -0.446366 -2.20618 -1.95356 -0.446366 -2.20619 -8.30768e-012 -9.0191e-006 -5.27751e-005 11.8766 1.90756 -1.86103 178.018 -14.6737 -97.7801 -12.9583 -53.8962 1.59773 -7.25485e-006 -6.36111e-015 3.97569e-016 -42.5017 -24.2166 -30.2589 178.66 6.67042 101.387 76.9293 67.4532 -78.0657 -1.62195 7.95139e-016 -0 -35.8702 12.9278 18.7444 -12.9987 6.99072 -176.713 -18.5521 0 -0 14.7425 3.87318 -7.82526 90 -4.96962e-017 -2.38542e-015 -11.7274 -4.41853 -179.906 -16.8438 -9.93923e-017 6.21202e-018 12.3471 -2.31515 4.67873 90 -3.97569e-016 3.97569e-016 
288.709 89.5416 43.7246 148.506 -82.4051 57.2214 -0.988856 -0.235856 -1.09159 -1.98204 -0.45233 -2.18693 -1.98204 -0.45233 -2.18694 -8.30748e-012 -9.0191e-006 -5.27751e-005 11.3964 2.00765 -2.00599 178.003 -14.6666 -97.8407 -13.0043 -54.0838 1.53672 -7.15526e-006 6.36111e-015 -3.97569e-016 -42.7287 -24.0344 -30.3012 178.644 6.70166 101.464 77.1489 67.4779 -78.3442 -1.60216 0 -3.97569e-016 -35.894 12.9388 18.7047 -12.9692 7.04101 -176.56 -18.4828 -3.18055e-015 -3.97569e-016 14.6699 3.87858 -7.83566 90 7.95139e-016 -2.38542e-015 -11.6424 -4.36604 -179.737 -16.7069 -2.48481e-017 2.48481e-017 12.3282 -2.28683 4.62172 90 4.25523e-016 -0 
288.903 89.5482 43.637 148.317 -82.3838 57.0619 -0.998176 -0.250646 -1.09252 -2.00097 -0.481712 -2.18909 -2.00097 -0.481712 -2.1891 -8.30788e-012 -9.0191e-006 -5.27751e-005 10.9927 2.1731 -2.13937 177.983 -14.611 -97.948 -12.9247 -54.187 1.62506 -7.05368e-006 6.36111e-015 -0 -42.6503 -24.0278 -30.3513 178.634 6.72915 101.499 77.7601 67.5252 -78.9708 -1.62349 0 -3.97569e-016 -35.9688 12.9395 18.7187 -12.8951 7.01238 -176.463 -18.3881 3.18055e-015 -3.97569e-016 14.6018 3.89203 -7.86248 90 -4.96962e-017 7.95139e-016 -11.5438 -4.32903 -179.612 -16.6104 0 -9.93923e-017 12.2884 -2.21569 4.47861 90 -1.53126e-015 -0 
289.071 89.5484 43.5457 147.85 -82.3376 56.6193 -1.00595 -0.270635 -1.08606 -2.01689 -0.521642 -2.17718 -2.01689 -0.521642 -2.17719 -8.30748e-012 -9.0191e-006 -5.27751e-005 10.7458 2.38077 -2.30052 177.987 -14.5719 -97.9534 -12.9585 -54.0039 1.66607 -6.95034e-006 0 -0 -42.608 -24.0649 -30.2911 178.614 6.79333 101.557 78.0938 67.5158 -79.3876 -1.65903 7.95139e-016 3.97569e-016 -35.8886 12.8322 18.6127 -12.8487 6.97179 -176.377 -18.3499 0 7.95139e-016 14.5566 3.91801 -7.91484 90 6.4605e-016 -1.59028e-015 -11.4757 -4.38466 -179.521 -16.5971 4.96962e-017 3.10601e-018 12.3385 -2.19045 4.42803 90 -1.54369e-015 -1.19271e-015 
289.204 89.5477 43.4538 146.961 -82.2883 55.7544 -1.00875 -0.295397 -1.0796 -2.02293 -0.571224 -2.16409 -2.02293 -0.571224 -2.16409 -8.30728e-012 -9.0191e-006 -5.27751e-005 10.5875 2.55523 -2.42943 177.986 -14.5848 -97.9483 -13.0531 -53.8279 1.79809 -6.84548e-006 -9.54166e-015 -3.97569e-016 -42.584 -24.1395 -30.2584 178.594 6.8779 101.581 78.0842 67.5239 -79.5016 -1.62515 0 -3.97569e-016 -35.9355 12.9539 18.6999 -12.7766 6.89361 -176.32 -18.3179 -1.59028e-015 3.97569e-016 14.5395 3.94866 -7.97677 90 1.04362e-015 -0 -11.3891 -4.44192 -179.455 -16.6138 1.2424e-017 4.65902e-018 12.3669 -2.13962 4.32599 90 3.78933e-016 -0 
289.311 89.5464 43.3681 145.942 -82.2197 54.7839 -1.01573 -0.320309 -1.07996 -2.03737 -0.620873 -2.1684 -2.03737 -0.620873 -2.16841 -8.30728e-012 -9.0191e-006 -5.27751e-005 10.5088 2.71172 -2.47541 178 -14.5236 -97.9272 -13.1027 -53.44 1.9382 -6.73932e-006 3.18055e-015 -3.97569e-016 -42.5801 -24.2746 -30.3271 178.591 6.90071 101.571 78.0138 67.478 -79.4743 -1.62144 3.97569e-016 -0 -35.9411 13.074 18.8358 -12.6929 6.80122 -176.306 -18.2576 3.18055e-015 1.19271e-015 14.5148 3.98514 -8.05066 90 9.93923e-017 -0 -11.3041 -4.46819 -179.425 -16.631 1.2424e-017 -2.48481e-017 12.4096 -2.06236 4.17109 90 -2.67117e-016 -0 
289.41 89.5433 43.2859 145.062 -82.1551 53.9355 -1.02399 -0.342651 -1.08077 -2.05434 -0.665424 -2.16957 -2.05434 -0.665424 -2.16958 -8.30718e-012 -9.0191e-006 -5.27751e-005 10.4999 2.87068 -2.46226 178.032 -14.4775 -97.8266 -13.3364 -53.1098 1.88241 -6.63212e-006 0 -0 -42.3164 -24.385 -30.0725 178.583 6.93202 101.586 77.9303 67.3975 -79.4687 -1.57542 1.19271e-015 3.97569e-016 -36.0024 13.0631 18.8235 -12.5974 6.70356 -176.287 -18.1791 1.59028e-015 -3.97569e-016 14.5441 3.99495 -8.07035 90 6.95746e-016 4.77083e-015 -11.2129 -4.47633 -179.375 -16.6228 -4.96962e-017 -3.10601e-017 12.439 -1.96965 3.98487 90 -8.26199e-016 -0 
289.495 89.5385 43.2101 144.332 -82.1283 53.2361 -1.02845 -0.360572 -1.08158 -2.0636 -0.701161 -2.17012 -2.0636 -0.701161 -2.17013 -8.30728e-012 -9.0191e-006 -5.27751e-005 10.5708 3.02563 -2.35276 178.046 -14.4369 -97.7907 -13.3868 -52.9027 1.98004 -6.52409e-006 6.36111e-015 -7.95139e-016 -42.3468 -24.4544 -30.1584 178.569 7.0091 101.567 77.6817 67.3155 -79.4211 -1.56185 -3.97569e-016 7.95139e-016 -35.9733 13.1409 18.8092 -12.4932 6.59432 -176.28 -18.1106 1.59028e-015 1.19271e-015 14.5472 3.9663 -8.01203 90 -9.44227e-016 -0 -11.1398 -4.53514 -179.349 -16.6755 4.96962e-017 6.21202e-018 12.5323 -1.94446 3.9344 90 3.91357e-016 -0 
289.567 89.5293 43.1477 144.019 -82.1315 52.9579 -1.03774 -0.368606 -1.08194 -2.08231 -0.717026 -2.17026 -2.08231 -0.717026 -2.17027 -8.30788e-012 -9.0191e-006 -5.27751e-005 10.6911 3.13964 -2.21751 178.069 -14.3629 -97.7396 -13.5005 -52.696 1.93294 -6.41547e-006 3.18055e-015 -3.97569e-016 -42.5695 -24.5492 -30.4363 178.573 6.99772 101.552 77.1699 67.2203 -79.0777 -1.50432 7.95139e-016 7.95139e-016 -36.0071 13.2723 18.9345 -12.4199 6.59477 -176.26 -18.086 0 -3.97569e-016 14.5665 3.99425 -8.06888 90 5.96354e-016 -0 -11.1224 -4.58788 -179.342 -16.7943 2.48481e-017 4.96962e-017 12.6808 -1.95404 3.95395 90 2.04065e-015 -0 
289.629 89.52 43.0848 144.071 -82.1986 53.0295 -1.04897 -0.360351 -1.07694 -2.10458 -0.700399 -2.16018 -2.10458 -0.700399 -2.16018 -8.30758e-012 -9.0191e-006 -5.27751e-005 10.925 3.23162 -2.14391 178.102 -14.285 -97.6478 -13.7514 -52.3907 1.72103 -6.3065e-006 6.36111e-015 -3.97569e-016 -42.6072 -24.7778 -30.6209 178.594 6.90341 101.539 76.273 67.1583 -78.293 -1.38591 0 -0 -36.0413 13.4651 19.1777 -12.3381 6.63889 -176.221 -18.1085 -1.59028e-015 -3.97569e-016 14.6085 3.99559 -8.0716 90 -3.97569e-016 -0 -11.0685 -4.52178 -179.303 -16.8732 -4.96962e-017 -4.34842e-017 12.7823 -1.93172 3.90926 90 2.82647e-016 -3.97569e-016 
289.678 89.5079 43.0305 144.314 -82.28 53.2669 -1.06253 -0.351166 -1.06529 -2.13146 -0.681993 -2.13678 -2.13146 -0.681993 -2.13679 -8.30758e-012 -9.0191e-006 -5.27751e-005 11.2062 3.24527 -2.12207 178.133 -14.25 -97.5451 -14.0728 -52.2308 1.4219 -6.19742e-006 0 -0 -42.5322 -24.893 -30.6255 178.619 6.77322 101.549 75.9093 67.1281 -78.0065 -1.35563 0 3.97569e-016 -36.0624 13.6652 19.3169 -12.3144 6.64989 -176.177 -18.2295 -3.18055e-015 -1.59028e-015 14.6346 3.94638 -7.97133 90 4.47266e-016 4.77083e-015 -11.0365 -4.46941 -179.257 -16.9731 4.96962e-017 -6.21202e-017 12.9031 -1.93789 3.92154 90 5.65294e-016 -0 
